# xmcd CD database file
#
# Track frame offsets:
#	150
#	18262
#	38475
#	60207
#	78192
#	96015
#	113322
#	129132
#	147640
#	164927
#
# Disc length: 2808 seconds
#
# Revision: 0
# Processed by: cddbd v1.5.1PL2 Copyright (c) Steve Scherf et al.
# Submitted via: CDex 1.51
#
DISCID=6f0af60a
DTITLE=KREVA - １００％RAP【其の二】
DYEAR=2006
DGENRE=Rap
TTITLE0=ドモアリガト　KREVA,CUEZERO,SONOMI
TTITLE1=マッハGO GO　KREVA,CUEZERO,遊戯&HIDA
TTITLE2=I Say,You Say　KREVA,CUEZERO,HOHEI JAPAN,竹内朋康
TTITLE3=片手にラガー　KREVA,CUEZERO,Mummy-D,ERONE
TTITLE4=mirror mirror　KREVA,CUEZERO,KOHEI JAPAN
TTITLE5=グリーンキッズ　GREEN KIDZ
TTITLE6=ファンタスティック　感動　Fantastic 4（KREVA,CUEZERO,DABO,ポチョムキン）
TTITLE7=OLE!OLE!　全日本（KREVA,CUEZERO,WADA,TSUBOI)
TTITLE8=カッケーゾ（くぅ）　KREVA,CUEZERO,竹内朋康,SONOMI
TTITLE9=DO MO ARIGATOH　Aｌｌ Member and more
EXTD=YEAR: 2006
EXTT0=
EXTT1=
EXTT2=
EXTT3=
EXTT4=
EXTT5=
EXTT6=
EXTT7=
EXTT8=
EXTT9=
PLAYORDER=
